<mxfile host="app.diagrams.net" modified="2023-02-02T03:07:07.407Z" agent="5.0 (Windows NT 10.0; WOW64) AppleWebKit/537.36 (KHTML, like Gecko) Chrome/102.0.0.0 Safari/537.36" etag="DZZnSgFpXJOVjOXi07Lj" version="20.8.3" type="github">
  <diagram id="FXc-_wCRFXNS4xSHc2Ze" name="第 1 页">
    <mxGraphModel dx="1180" dy="720" grid="1" gridSize="10" guides="1" tooltips="1" connect="1" arrows="1" fold="1" page="1" pageScale="1" pageWidth="827" pageHeight="1169" math="0" shadow="0">
      <root>
        <mxCell id="0" />
        <mxCell id="1" parent="0" />
        <mxCell id="jVlzTKVtiinRC7-ohEld-1" value="" style="endArrow=none;html=1;rounded=0;" parent="1" edge="1">
          <mxGeometry width="50" height="50" relative="1" as="geometry">
            <mxPoint x="200" y="240" as="sourcePoint" />
            <mxPoint x="560" y="240" as="targetPoint" />
          </mxGeometry>
        </mxCell>
        <mxCell id="jVlzTKVtiinRC7-ohEld-2" value="" style="endArrow=classic;html=1;rounded=0;" parent="1" edge="1">
          <mxGeometry width="50" height="50" relative="1" as="geometry">
            <mxPoint x="200" y="360" as="sourcePoint" />
            <mxPoint x="200" y="160" as="targetPoint" />
          </mxGeometry>
        </mxCell>
        <mxCell id="jVlzTKVtiinRC7-ohEld-4" value="" style="endArrow=none;html=1;rounded=0;" parent="1" edge="1">
          <mxGeometry width="50" height="50" relative="1" as="geometry">
            <mxPoint x="200" y="240" as="sourcePoint" />
            <mxPoint x="210" y="230" as="targetPoint" />
          </mxGeometry>
        </mxCell>
        <mxCell id="jVlzTKVtiinRC7-ohEld-5" value="" style="endArrow=none;html=1;rounded=0;" parent="1" edge="1">
          <mxGeometry width="50" height="50" relative="1" as="geometry">
            <mxPoint x="210" y="240" as="sourcePoint" />
            <mxPoint x="220" y="230" as="targetPoint" />
          </mxGeometry>
        </mxCell>
        <mxCell id="jVlzTKVtiinRC7-ohEld-6" value="" style="endArrow=none;html=1;rounded=0;" parent="1" edge="1">
          <mxGeometry width="50" height="50" relative="1" as="geometry">
            <mxPoint x="220" y="240" as="sourcePoint" />
            <mxPoint x="230" y="230" as="targetPoint" />
          </mxGeometry>
        </mxCell>
        <mxCell id="jVlzTKVtiinRC7-ohEld-7" value="" style="endArrow=none;html=1;rounded=0;" parent="1" edge="1">
          <mxGeometry width="50" height="50" relative="1" as="geometry">
            <mxPoint x="230" y="240" as="sourcePoint" />
            <mxPoint x="240" y="230" as="targetPoint" />
          </mxGeometry>
        </mxCell>
        <mxCell id="jVlzTKVtiinRC7-ohEld-8" value="" style="endArrow=none;html=1;rounded=0;" parent="1" edge="1">
          <mxGeometry width="50" height="50" relative="1" as="geometry">
            <mxPoint x="240" y="240" as="sourcePoint" />
            <mxPoint x="250" y="230" as="targetPoint" />
          </mxGeometry>
        </mxCell>
        <mxCell id="jVlzTKVtiinRC7-ohEld-9" value="" style="endArrow=none;html=1;rounded=0;" parent="1" edge="1">
          <mxGeometry width="50" height="50" relative="1" as="geometry">
            <mxPoint x="250" y="240" as="sourcePoint" />
            <mxPoint x="260" y="230" as="targetPoint" />
          </mxGeometry>
        </mxCell>
        <mxCell id="jVlzTKVtiinRC7-ohEld-10" value="" style="endArrow=none;html=1;rounded=0;" parent="1" edge="1">
          <mxGeometry width="50" height="50" relative="1" as="geometry">
            <mxPoint x="260" y="240" as="sourcePoint" />
            <mxPoint x="270" y="230" as="targetPoint" />
          </mxGeometry>
        </mxCell>
        <mxCell id="jVlzTKVtiinRC7-ohEld-11" value="" style="endArrow=none;html=1;rounded=0;" parent="1" edge="1">
          <mxGeometry width="50" height="50" relative="1" as="geometry">
            <mxPoint x="270" y="240" as="sourcePoint" />
            <mxPoint x="280" y="230" as="targetPoint" />
          </mxGeometry>
        </mxCell>
        <mxCell id="jVlzTKVtiinRC7-ohEld-12" value="" style="endArrow=none;html=1;rounded=0;" parent="1" edge="1">
          <mxGeometry width="50" height="50" relative="1" as="geometry">
            <mxPoint x="280" y="240" as="sourcePoint" />
            <mxPoint x="290" y="230" as="targetPoint" />
          </mxGeometry>
        </mxCell>
        <mxCell id="jVlzTKVtiinRC7-ohEld-13" value="" style="endArrow=none;html=1;rounded=0;" parent="1" edge="1">
          <mxGeometry width="50" height="50" relative="1" as="geometry">
            <mxPoint x="290" y="240" as="sourcePoint" />
            <mxPoint x="300" y="230" as="targetPoint" />
          </mxGeometry>
        </mxCell>
        <mxCell id="jVlzTKVtiinRC7-ohEld-14" value="" style="endArrow=none;html=1;rounded=0;" parent="1" edge="1">
          <mxGeometry width="50" height="50" relative="1" as="geometry">
            <mxPoint x="300" y="240" as="sourcePoint" />
            <mxPoint x="310" y="230" as="targetPoint" />
          </mxGeometry>
        </mxCell>
        <mxCell id="jVlzTKVtiinRC7-ohEld-15" value="" style="endArrow=none;html=1;rounded=0;" parent="1" edge="1">
          <mxGeometry width="50" height="50" relative="1" as="geometry">
            <mxPoint x="310" y="240" as="sourcePoint" />
            <mxPoint x="320" y="230" as="targetPoint" />
          </mxGeometry>
        </mxCell>
        <mxCell id="jVlzTKVtiinRC7-ohEld-16" value="" style="endArrow=none;html=1;rounded=0;" parent="1" edge="1">
          <mxGeometry width="50" height="50" relative="1" as="geometry">
            <mxPoint x="320" y="240" as="sourcePoint" />
            <mxPoint x="330" y="230" as="targetPoint" />
          </mxGeometry>
        </mxCell>
        <mxCell id="jVlzTKVtiinRC7-ohEld-17" value="" style="endArrow=none;html=1;rounded=0;" parent="1" edge="1">
          <mxGeometry width="50" height="50" relative="1" as="geometry">
            <mxPoint x="330" y="240" as="sourcePoint" />
            <mxPoint x="340" y="230" as="targetPoint" />
          </mxGeometry>
        </mxCell>
        <mxCell id="jVlzTKVtiinRC7-ohEld-18" value="" style="endArrow=none;html=1;rounded=0;" parent="1" edge="1">
          <mxGeometry width="50" height="50" relative="1" as="geometry">
            <mxPoint x="340" y="240" as="sourcePoint" />
            <mxPoint x="350" y="230" as="targetPoint" />
          </mxGeometry>
        </mxCell>
        <mxCell id="jVlzTKVtiinRC7-ohEld-19" value="" style="endArrow=none;html=1;rounded=0;" parent="1" edge="1">
          <mxGeometry width="50" height="50" relative="1" as="geometry">
            <mxPoint x="350" y="240" as="sourcePoint" />
            <mxPoint x="360" y="230" as="targetPoint" />
          </mxGeometry>
        </mxCell>
        <mxCell id="jVlzTKVtiinRC7-ohEld-20" value="" style="endArrow=none;html=1;rounded=0;" parent="1" edge="1">
          <mxGeometry width="50" height="50" relative="1" as="geometry">
            <mxPoint x="361" y="240" as="sourcePoint" />
            <mxPoint x="371" y="230" as="targetPoint" />
          </mxGeometry>
        </mxCell>
        <mxCell id="jVlzTKVtiinRC7-ohEld-21" value="" style="endArrow=none;html=1;rounded=0;" parent="1" edge="1">
          <mxGeometry width="50" height="50" relative="1" as="geometry">
            <mxPoint x="371" y="240" as="sourcePoint" />
            <mxPoint x="381" y="230" as="targetPoint" />
          </mxGeometry>
        </mxCell>
        <mxCell id="jVlzTKVtiinRC7-ohEld-22" value="" style="endArrow=none;html=1;rounded=0;" parent="1" edge="1">
          <mxGeometry width="50" height="50" relative="1" as="geometry">
            <mxPoint x="381" y="240" as="sourcePoint" />
            <mxPoint x="391" y="230" as="targetPoint" />
          </mxGeometry>
        </mxCell>
        <mxCell id="jVlzTKVtiinRC7-ohEld-23" value="" style="endArrow=none;html=1;rounded=0;" parent="1" edge="1">
          <mxGeometry width="50" height="50" relative="1" as="geometry">
            <mxPoint x="391" y="240" as="sourcePoint" />
            <mxPoint x="401" y="230" as="targetPoint" />
          </mxGeometry>
        </mxCell>
        <mxCell id="jVlzTKVtiinRC7-ohEld-24" value="" style="endArrow=none;html=1;rounded=0;" parent="1" edge="1">
          <mxGeometry width="50" height="50" relative="1" as="geometry">
            <mxPoint x="401" y="240" as="sourcePoint" />
            <mxPoint x="411" y="230" as="targetPoint" />
          </mxGeometry>
        </mxCell>
        <mxCell id="jVlzTKVtiinRC7-ohEld-25" value="" style="endArrow=none;html=1;rounded=0;" parent="1" edge="1">
          <mxGeometry width="50" height="50" relative="1" as="geometry">
            <mxPoint x="411" y="240" as="sourcePoint" />
            <mxPoint x="421" y="230" as="targetPoint" />
          </mxGeometry>
        </mxCell>
        <mxCell id="jVlzTKVtiinRC7-ohEld-26" value="" style="endArrow=none;html=1;rounded=0;" parent="1" edge="1">
          <mxGeometry width="50" height="50" relative="1" as="geometry">
            <mxPoint x="421" y="240" as="sourcePoint" />
            <mxPoint x="431" y="230" as="targetPoint" />
          </mxGeometry>
        </mxCell>
        <mxCell id="jVlzTKVtiinRC7-ohEld-27" value="" style="endArrow=none;html=1;rounded=0;" parent="1" edge="1">
          <mxGeometry width="50" height="50" relative="1" as="geometry">
            <mxPoint x="431" y="240" as="sourcePoint" />
            <mxPoint x="441" y="230" as="targetPoint" />
          </mxGeometry>
        </mxCell>
        <mxCell id="jVlzTKVtiinRC7-ohEld-28" value="" style="endArrow=none;html=1;rounded=0;" parent="1" edge="1">
          <mxGeometry width="50" height="50" relative="1" as="geometry">
            <mxPoint x="441" y="240" as="sourcePoint" />
            <mxPoint x="451" y="230" as="targetPoint" />
          </mxGeometry>
        </mxCell>
        <mxCell id="jVlzTKVtiinRC7-ohEld-29" value="" style="endArrow=none;html=1;rounded=0;" parent="1" edge="1">
          <mxGeometry width="50" height="50" relative="1" as="geometry">
            <mxPoint x="451" y="240" as="sourcePoint" />
            <mxPoint x="461" y="230" as="targetPoint" />
          </mxGeometry>
        </mxCell>
        <mxCell id="jVlzTKVtiinRC7-ohEld-30" value="" style="endArrow=none;html=1;rounded=0;" parent="1" edge="1">
          <mxGeometry width="50" height="50" relative="1" as="geometry">
            <mxPoint x="461" y="240" as="sourcePoint" />
            <mxPoint x="471" y="230" as="targetPoint" />
          </mxGeometry>
        </mxCell>
        <mxCell id="jVlzTKVtiinRC7-ohEld-31" value="" style="endArrow=none;html=1;rounded=0;" parent="1" edge="1">
          <mxGeometry width="50" height="50" relative="1" as="geometry">
            <mxPoint x="471" y="240" as="sourcePoint" />
            <mxPoint x="481" y="230" as="targetPoint" />
          </mxGeometry>
        </mxCell>
        <mxCell id="jVlzTKVtiinRC7-ohEld-32" value="" style="endArrow=none;html=1;rounded=0;" parent="1" edge="1">
          <mxGeometry width="50" height="50" relative="1" as="geometry">
            <mxPoint x="481" y="240" as="sourcePoint" />
            <mxPoint x="491" y="230" as="targetPoint" />
          </mxGeometry>
        </mxCell>
        <mxCell id="jVlzTKVtiinRC7-ohEld-33" value="" style="endArrow=none;html=1;rounded=0;" parent="1" edge="1">
          <mxGeometry width="50" height="50" relative="1" as="geometry">
            <mxPoint x="491" y="240" as="sourcePoint" />
            <mxPoint x="501" y="230" as="targetPoint" />
          </mxGeometry>
        </mxCell>
        <mxCell id="jVlzTKVtiinRC7-ohEld-34" value="" style="endArrow=none;html=1;rounded=0;" parent="1" edge="1">
          <mxGeometry width="50" height="50" relative="1" as="geometry">
            <mxPoint x="501" y="240" as="sourcePoint" />
            <mxPoint x="511" y="230" as="targetPoint" />
          </mxGeometry>
        </mxCell>
        <mxCell id="jVlzTKVtiinRC7-ohEld-35" value="" style="endArrow=none;html=1;rounded=0;" parent="1" edge="1">
          <mxGeometry width="50" height="50" relative="1" as="geometry">
            <mxPoint x="511" y="240" as="sourcePoint" />
            <mxPoint x="521" y="230" as="targetPoint" />
          </mxGeometry>
        </mxCell>
        <mxCell id="jVlzTKVtiinRC7-ohEld-36" value="" style="endArrow=classic;html=1;rounded=0;dashed=1;" parent="1" edge="1">
          <mxGeometry width="50" height="50" relative="1" as="geometry">
            <mxPoint x="200" y="360" as="sourcePoint" />
            <mxPoint x="560" y="360" as="targetPoint" />
          </mxGeometry>
        </mxCell>
        <mxCell id="jVlzTKVtiinRC7-ohEld-39" value="" style="endArrow=none;html=1;rounded=0;" parent="1" edge="1">
          <mxGeometry width="50" height="50" relative="1" as="geometry">
            <mxPoint x="430" y="240" as="sourcePoint" />
            <mxPoint x="430" y="360" as="targetPoint" />
          </mxGeometry>
        </mxCell>
        <mxCell id="jVlzTKVtiinRC7-ohEld-40" value="" style="endArrow=none;html=1;rounded=0;" parent="1" edge="1">
          <mxGeometry width="50" height="50" relative="1" as="geometry">
            <mxPoint x="502.5" y="480" as="sourcePoint" />
            <mxPoint x="200" y="480" as="targetPoint" />
          </mxGeometry>
        </mxCell>
        <mxCell id="jVlzTKVtiinRC7-ohEld-41" value="" style="endArrow=none;html=1;rounded=0;" parent="1" edge="1">
          <mxGeometry width="50" height="50" relative="1" as="geometry">
            <mxPoint x="502.5" y="480" as="sourcePoint" />
            <mxPoint x="493.3333333333333" y="490" as="targetPoint" />
          </mxGeometry>
        </mxCell>
        <mxCell id="jVlzTKVtiinRC7-ohEld-42" value="" style="endArrow=none;html=1;rounded=0;" parent="1" edge="1">
          <mxGeometry width="50" height="50" relative="1" as="geometry">
            <mxPoint x="493.3333333333333" y="480" as="sourcePoint" />
            <mxPoint x="484.16666666666663" y="490" as="targetPoint" />
          </mxGeometry>
        </mxCell>
        <mxCell id="jVlzTKVtiinRC7-ohEld-43" value="" style="endArrow=none;html=1;rounded=0;" parent="1" edge="1">
          <mxGeometry width="50" height="50" relative="1" as="geometry">
            <mxPoint x="484.16666666666663" y="480" as="sourcePoint" />
            <mxPoint x="475" y="490" as="targetPoint" />
          </mxGeometry>
        </mxCell>
        <mxCell id="jVlzTKVtiinRC7-ohEld-44" value="" style="endArrow=none;html=1;rounded=0;" parent="1" edge="1">
          <mxGeometry width="50" height="50" relative="1" as="geometry">
            <mxPoint x="475" y="480" as="sourcePoint" />
            <mxPoint x="465.8333333333333" y="490" as="targetPoint" />
          </mxGeometry>
        </mxCell>
        <mxCell id="jVlzTKVtiinRC7-ohEld-45" value="" style="endArrow=none;html=1;rounded=0;" parent="1" edge="1">
          <mxGeometry width="50" height="50" relative="1" as="geometry">
            <mxPoint x="465.8333333333333" y="480" as="sourcePoint" />
            <mxPoint x="456.66666666666663" y="490" as="targetPoint" />
          </mxGeometry>
        </mxCell>
        <mxCell id="jVlzTKVtiinRC7-ohEld-46" value="" style="endArrow=none;html=1;rounded=0;" parent="1" edge="1">
          <mxGeometry width="50" height="50" relative="1" as="geometry">
            <mxPoint x="456.66666666666663" y="480" as="sourcePoint" />
            <mxPoint x="447.5" y="490" as="targetPoint" />
          </mxGeometry>
        </mxCell>
        <mxCell id="jVlzTKVtiinRC7-ohEld-47" value="" style="endArrow=none;html=1;rounded=0;" parent="1" edge="1">
          <mxGeometry width="50" height="50" relative="1" as="geometry">
            <mxPoint x="447.5" y="480" as="sourcePoint" />
            <mxPoint x="438.3333333333333" y="490" as="targetPoint" />
          </mxGeometry>
        </mxCell>
        <mxCell id="jVlzTKVtiinRC7-ohEld-48" value="" style="endArrow=none;html=1;rounded=0;" parent="1" edge="1">
          <mxGeometry width="50" height="50" relative="1" as="geometry">
            <mxPoint x="438.3333333333333" y="480" as="sourcePoint" />
            <mxPoint x="429.16666666666663" y="490" as="targetPoint" />
          </mxGeometry>
        </mxCell>
        <mxCell id="jVlzTKVtiinRC7-ohEld-49" value="" style="endArrow=none;html=1;rounded=0;" parent="1" edge="1">
          <mxGeometry width="50" height="50" relative="1" as="geometry">
            <mxPoint x="429.16666666666663" y="480" as="sourcePoint" />
            <mxPoint x="420" y="490" as="targetPoint" />
          </mxGeometry>
        </mxCell>
        <mxCell id="jVlzTKVtiinRC7-ohEld-50" value="" style="endArrow=none;html=1;rounded=0;" parent="1" edge="1">
          <mxGeometry width="50" height="50" relative="1" as="geometry">
            <mxPoint x="420" y="480" as="sourcePoint" />
            <mxPoint x="410.8333333333333" y="490" as="targetPoint" />
          </mxGeometry>
        </mxCell>
        <mxCell id="jVlzTKVtiinRC7-ohEld-51" value="" style="endArrow=none;html=1;rounded=0;" parent="1" edge="1">
          <mxGeometry width="50" height="50" relative="1" as="geometry">
            <mxPoint x="410.8333333333333" y="480" as="sourcePoint" />
            <mxPoint x="401.66666666666663" y="490" as="targetPoint" />
          </mxGeometry>
        </mxCell>
        <mxCell id="jVlzTKVtiinRC7-ohEld-52" value="" style="endArrow=none;html=1;rounded=0;" parent="1" edge="1">
          <mxGeometry width="50" height="50" relative="1" as="geometry">
            <mxPoint x="401.66666666666663" y="480" as="sourcePoint" />
            <mxPoint x="392.5" y="490" as="targetPoint" />
          </mxGeometry>
        </mxCell>
        <mxCell id="jVlzTKVtiinRC7-ohEld-53" value="" style="endArrow=none;html=1;rounded=0;" parent="1" edge="1">
          <mxGeometry width="50" height="50" relative="1" as="geometry">
            <mxPoint x="392.5" y="480" as="sourcePoint" />
            <mxPoint x="383.3333333333333" y="490" as="targetPoint" />
          </mxGeometry>
        </mxCell>
        <mxCell id="jVlzTKVtiinRC7-ohEld-54" value="" style="endArrow=none;html=1;rounded=0;" parent="1" edge="1">
          <mxGeometry width="50" height="50" relative="1" as="geometry">
            <mxPoint x="383.3333333333333" y="480" as="sourcePoint" />
            <mxPoint x="374.16666666666663" y="490" as="targetPoint" />
          </mxGeometry>
        </mxCell>
        <mxCell id="jVlzTKVtiinRC7-ohEld-55" value="" style="endArrow=none;html=1;rounded=0;" parent="1" edge="1">
          <mxGeometry width="50" height="50" relative="1" as="geometry">
            <mxPoint x="374.16666666666663" y="480" as="sourcePoint" />
            <mxPoint x="365" y="490" as="targetPoint" />
          </mxGeometry>
        </mxCell>
        <mxCell id="jVlzTKVtiinRC7-ohEld-56" value="" style="endArrow=none;html=1;rounded=0;" parent="1" edge="1">
          <mxGeometry width="50" height="50" relative="1" as="geometry">
            <mxPoint x="365" y="480" as="sourcePoint" />
            <mxPoint x="355.8333333333333" y="490" as="targetPoint" />
          </mxGeometry>
        </mxCell>
        <mxCell id="jVlzTKVtiinRC7-ohEld-57" value="" style="endArrow=none;html=1;rounded=0;" parent="1" edge="1">
          <mxGeometry width="50" height="50" relative="1" as="geometry">
            <mxPoint x="354.91666666666663" y="480" as="sourcePoint" />
            <mxPoint x="345.75" y="490" as="targetPoint" />
          </mxGeometry>
        </mxCell>
        <mxCell id="jVlzTKVtiinRC7-ohEld-58" value="" style="endArrow=none;html=1;rounded=0;" parent="1" edge="1">
          <mxGeometry width="50" height="50" relative="1" as="geometry">
            <mxPoint x="345.75" y="480" as="sourcePoint" />
            <mxPoint x="336.5833333333333" y="490" as="targetPoint" />
          </mxGeometry>
        </mxCell>
        <mxCell id="jVlzTKVtiinRC7-ohEld-59" value="" style="endArrow=none;html=1;rounded=0;" parent="1" edge="1">
          <mxGeometry width="50" height="50" relative="1" as="geometry">
            <mxPoint x="336.5833333333333" y="480" as="sourcePoint" />
            <mxPoint x="327.41666666666663" y="490" as="targetPoint" />
          </mxGeometry>
        </mxCell>
        <mxCell id="jVlzTKVtiinRC7-ohEld-60" value="" style="endArrow=none;html=1;rounded=0;" parent="1" edge="1">
          <mxGeometry width="50" height="50" relative="1" as="geometry">
            <mxPoint x="327.41666666666663" y="480" as="sourcePoint" />
            <mxPoint x="318.25" y="490" as="targetPoint" />
          </mxGeometry>
        </mxCell>
        <mxCell id="jVlzTKVtiinRC7-ohEld-61" value="" style="endArrow=none;html=1;rounded=0;" parent="1" edge="1">
          <mxGeometry width="50" height="50" relative="1" as="geometry">
            <mxPoint x="318.25" y="480" as="sourcePoint" />
            <mxPoint x="309.0833333333333" y="490" as="targetPoint" />
          </mxGeometry>
        </mxCell>
        <mxCell id="jVlzTKVtiinRC7-ohEld-62" value="" style="endArrow=none;html=1;rounded=0;" parent="1" edge="1">
          <mxGeometry width="50" height="50" relative="1" as="geometry">
            <mxPoint x="309.0833333333333" y="480" as="sourcePoint" />
            <mxPoint x="299.91666666666663" y="490" as="targetPoint" />
          </mxGeometry>
        </mxCell>
        <mxCell id="jVlzTKVtiinRC7-ohEld-63" value="" style="endArrow=none;html=1;rounded=0;" parent="1" edge="1">
          <mxGeometry width="50" height="50" relative="1" as="geometry">
            <mxPoint x="299.91666666666663" y="480" as="sourcePoint" />
            <mxPoint x="290.75" y="490" as="targetPoint" />
          </mxGeometry>
        </mxCell>
        <mxCell id="jVlzTKVtiinRC7-ohEld-64" value="" style="endArrow=none;html=1;rounded=0;" parent="1" edge="1">
          <mxGeometry width="50" height="50" relative="1" as="geometry">
            <mxPoint x="290.75" y="480" as="sourcePoint" />
            <mxPoint x="281.5833333333333" y="490" as="targetPoint" />
          </mxGeometry>
        </mxCell>
        <mxCell id="jVlzTKVtiinRC7-ohEld-65" value="" style="endArrow=none;html=1;rounded=0;" parent="1" edge="1">
          <mxGeometry width="50" height="50" relative="1" as="geometry">
            <mxPoint x="281.5833333333333" y="480" as="sourcePoint" />
            <mxPoint x="272.41666666666663" y="490" as="targetPoint" />
          </mxGeometry>
        </mxCell>
        <mxCell id="jVlzTKVtiinRC7-ohEld-66" value="" style="endArrow=none;html=1;rounded=0;" parent="1" edge="1">
          <mxGeometry width="50" height="50" relative="1" as="geometry">
            <mxPoint x="272.41666666666663" y="480" as="sourcePoint" />
            <mxPoint x="263.25" y="490" as="targetPoint" />
          </mxGeometry>
        </mxCell>
        <mxCell id="jVlzTKVtiinRC7-ohEld-67" value="" style="endArrow=none;html=1;rounded=0;" parent="1" edge="1">
          <mxGeometry width="50" height="50" relative="1" as="geometry">
            <mxPoint x="263.25" y="480" as="sourcePoint" />
            <mxPoint x="254.08333333333331" y="490" as="targetPoint" />
          </mxGeometry>
        </mxCell>
        <mxCell id="jVlzTKVtiinRC7-ohEld-68" value="" style="endArrow=none;html=1;rounded=0;" parent="1" edge="1">
          <mxGeometry width="50" height="50" relative="1" as="geometry">
            <mxPoint x="254.08333333333331" y="480" as="sourcePoint" />
            <mxPoint x="244.91666666666666" y="490" as="targetPoint" />
          </mxGeometry>
        </mxCell>
        <mxCell id="jVlzTKVtiinRC7-ohEld-69" value="" style="endArrow=none;html=1;rounded=0;" parent="1" edge="1">
          <mxGeometry width="50" height="50" relative="1" as="geometry">
            <mxPoint x="244.91666666666666" y="480" as="sourcePoint" />
            <mxPoint x="235.75" y="490" as="targetPoint" />
          </mxGeometry>
        </mxCell>
        <mxCell id="jVlzTKVtiinRC7-ohEld-70" value="" style="endArrow=none;html=1;rounded=0;" parent="1" edge="1">
          <mxGeometry width="50" height="50" relative="1" as="geometry">
            <mxPoint x="235.75" y="480" as="sourcePoint" />
            <mxPoint x="226.58333333333334" y="490" as="targetPoint" />
          </mxGeometry>
        </mxCell>
        <mxCell id="jVlzTKVtiinRC7-ohEld-71" value="" style="endArrow=none;html=1;rounded=0;" parent="1" edge="1">
          <mxGeometry width="50" height="50" relative="1" as="geometry">
            <mxPoint x="226.58333333333334" y="480" as="sourcePoint" />
            <mxPoint x="217.41666666666666" y="490" as="targetPoint" />
          </mxGeometry>
        </mxCell>
        <mxCell id="jVlzTKVtiinRC7-ohEld-72" value="" style="endArrow=none;html=1;rounded=0;" parent="1" edge="1">
          <mxGeometry width="50" height="50" relative="1" as="geometry">
            <mxPoint x="217.41666666666666" y="480" as="sourcePoint" />
            <mxPoint x="208.25" y="490" as="targetPoint" />
          </mxGeometry>
        </mxCell>
        <mxCell id="jVlzTKVtiinRC7-ohEld-74" value="" style="endArrow=classic;html=1;rounded=0;" parent="1" edge="1">
          <mxGeometry width="50" height="50" relative="1" as="geometry">
            <mxPoint x="200" y="380" as="sourcePoint" />
            <mxPoint x="470" y="380" as="targetPoint" />
          </mxGeometry>
        </mxCell>
        <mxCell id="jVlzTKVtiinRC7-ohEld-75" value="" style="endArrow=classic;html=1;rounded=0;" parent="1" edge="1">
          <mxGeometry width="50" height="50" relative="1" as="geometry">
            <mxPoint x="200" y="400" as="sourcePoint" />
            <mxPoint x="460" y="400" as="targetPoint" />
          </mxGeometry>
        </mxCell>
        <mxCell id="jVlzTKVtiinRC7-ohEld-76" value="" style="endArrow=classic;html=1;rounded=0;" parent="1" edge="1">
          <mxGeometry width="50" height="50" relative="1" as="geometry">
            <mxPoint x="200" y="420" as="sourcePoint" />
            <mxPoint x="440" y="420" as="targetPoint" />
          </mxGeometry>
        </mxCell>
        <mxCell id="jVlzTKVtiinRC7-ohEld-77" value="" style="endArrow=classic;html=1;rounded=0;" parent="1" edge="1">
          <mxGeometry width="50" height="50" relative="1" as="geometry">
            <mxPoint x="200" y="440" as="sourcePoint" />
            <mxPoint x="420" y="440" as="targetPoint" />
          </mxGeometry>
        </mxCell>
        <mxCell id="jVlzTKVtiinRC7-ohEld-78" value="" style="endArrow=classic;html=1;rounded=0;" parent="1" edge="1">
          <mxGeometry width="50" height="50" relative="1" as="geometry">
            <mxPoint x="200" y="460" as="sourcePoint" />
            <mxPoint x="390" y="460" as="targetPoint" />
          </mxGeometry>
        </mxCell>
        <mxCell id="jVlzTKVtiinRC7-ohEld-83" value="" style="curved=1;endArrow=none;html=1;rounded=0;startArrow=none;startFill=0;endFill=0;" parent="1" edge="1">
          <mxGeometry width="50" height="50" relative="1" as="geometry">
            <mxPoint x="360" y="480" as="sourcePoint" />
            <mxPoint x="360" y="240" as="targetPoint" />
            <Array as="points">
              <mxPoint x="440" y="440" />
              <mxPoint x="500" y="320" />
            </Array>
          </mxGeometry>
        </mxCell>
        <mxCell id="jVlzTKVtiinRC7-ohEld-84" value="" style="endArrow=none;startArrow=none;html=1;rounded=0;startFill=0;dashed=1;endFill=0;" parent="1" edge="1">
          <mxGeometry width="50" height="50" relative="1" as="geometry">
            <mxPoint x="390" y="320" as="sourcePoint" />
            <mxPoint x="460" y="320" as="targetPoint" />
          </mxGeometry>
        </mxCell>
        <mxCell id="jVlzTKVtiinRC7-ohEld-85" value="" style="endArrow=none;html=1;rounded=0;dashed=1;startArrow=classic;startFill=1;endFill=0;" parent="1" edge="1">
          <mxGeometry width="50" height="50" relative="1" as="geometry">
            <mxPoint x="360" y="250" as="sourcePoint" />
            <mxPoint x="430" y="250" as="targetPoint" />
          </mxGeometry>
        </mxCell>
        <mxCell id="jVlzTKVtiinRC7-ohEld-86" value="" style="endArrow=classic;html=1;rounded=0;dashed=1;" parent="1" edge="1">
          <mxGeometry width="50" height="50" relative="1" as="geometry">
            <mxPoint x="320" y="320" as="sourcePoint" />
            <mxPoint x="390" y="320" as="targetPoint" />
          </mxGeometry>
        </mxCell>
        <mxCell id="jVlzTKVtiinRC7-ohEld-89" value="" style="endArrow=none;dashed=1;html=1;rounded=0;" parent="1" edge="1">
          <mxGeometry width="50" height="50" relative="1" as="geometry">
            <mxPoint x="320" y="250" as="sourcePoint" />
            <mxPoint x="360" y="250" as="targetPoint" />
          </mxGeometry>
        </mxCell>
        <mxCell id="jVlzTKVtiinRC7-ohEld-92" value="" style="endArrow=none;html=1;rounded=0;shadow=0;startSize=1;" parent="1" edge="1">
          <mxGeometry width="50" height="50" relative="1" as="geometry">
            <mxPoint x="400" y="260" as="sourcePoint" />
            <mxPoint x="410" y="250" as="targetPoint" />
          </mxGeometry>
        </mxCell>
        <mxCell id="jVlzTKVtiinRC7-ohEld-93" value="" style="endArrow=none;html=1;rounded=0;shadow=0;startSize=1;" parent="1" edge="1">
          <mxGeometry width="50" height="50" relative="1" as="geometry">
            <mxPoint x="410" y="270" as="sourcePoint" />
            <mxPoint x="420" y="250" as="targetPoint" />
          </mxGeometry>
        </mxCell>
        <mxCell id="jVlzTKVtiinRC7-ohEld-94" value="" style="endArrow=none;html=1;rounded=0;shadow=0;startSize=1;" parent="1" edge="1">
          <mxGeometry width="50" height="50" relative="1" as="geometry">
            <mxPoint x="420" y="280" as="sourcePoint" />
            <mxPoint x="430" y="260" as="targetPoint" />
          </mxGeometry>
        </mxCell>
        <mxCell id="jVlzTKVtiinRC7-ohEld-95" value="" style="endArrow=none;html=1;rounded=0;shadow=0;startSize=1;" parent="1" edge="1">
          <mxGeometry width="50" height="50" relative="1" as="geometry">
            <mxPoint x="430" y="310" as="sourcePoint" />
            <mxPoint x="440" y="320" as="targetPoint" />
          </mxGeometry>
        </mxCell>
        <mxCell id="jVlzTKVtiinRC7-ohEld-96" value="" style="endArrow=none;html=1;rounded=0;shadow=0;startSize=1;" parent="1" edge="1">
          <mxGeometry width="50" height="50" relative="1" as="geometry">
            <mxPoint x="430" y="300" as="sourcePoint" />
            <mxPoint x="450" y="320" as="targetPoint" />
          </mxGeometry>
        </mxCell>
        <mxCell id="jVlzTKVtiinRC7-ohEld-97" value="" style="endArrow=none;html=1;rounded=0;shadow=0;startSize=1;" parent="1" edge="1">
          <mxGeometry width="50" height="50" relative="1" as="geometry">
            <mxPoint x="430" y="290" as="sourcePoint" />
            <mxPoint x="460" y="320" as="targetPoint" />
          </mxGeometry>
        </mxCell>
        <mxCell id="h8WNUDqtsbtKfdvw7zQh-1" value="&lt;b&gt;x&lt;/b&gt;" style="text;html=1;align=center;verticalAlign=middle;resizable=0;points=[];autosize=1;strokeColor=none;fillColor=none;" vertex="1" parent="1">
          <mxGeometry x="530" y="330" width="30" height="30" as="geometry" />
        </mxCell>
        <mxCell id="h8WNUDqtsbtKfdvw7zQh-2" value="&lt;b&gt;y&lt;/b&gt;" style="text;html=1;align=center;verticalAlign=middle;resizable=0;points=[];autosize=1;strokeColor=none;fillColor=none;" vertex="1" parent="1">
          <mxGeometry x="200" y="150" width="30" height="30" as="geometry" />
        </mxCell>
      </root>
    </mxGraphModel>
  </diagram>
</mxfile>
